<?xml version="1.0"?>
<svg xmlns="http://www.w3.org/2000/svg" xmlns:xlink="http://www.w3.org/1999/xlink" viewBox="0 0 391.200000 144.000000" width="195.600000mm" height="72.000000mm" version="1.1">
<defs>
   <filter id="filter" filterRes="18" x="0" y="0">
     <feGaussianBlur in="SourceGraphic" stdDeviation="1.55" result="blur"/>
     <feOffset in="blur" dx="3" dy="3"/>
   </filter>
</defs>
<a xlink:href="OutMeter-0x9f88d00.svg">
<rect x="1.000000" y="1.000000" width="390.200000" height="143.000000" rx="0.1" ry="0.1" style="stroke:none;fill:#aaaaaa;;filter:url(#filter);"/>
<rect x="0.000000" y="0.000000" width="390.200000" height="143.000000" rx="0" ry="0" style="stroke:none;fill:#ffffff;"/>
</a>
<text x="10.000000" y="7.000000" font-family="Arial" font-size="7"></text>
<rect x="33.000000" y="61.000000" width="24.000000" height="24.000000" rx="0.1" ry="0.1" style="stroke:none;fill:#aaaaaa;;filter:url(#filter);"/>
<rect x="32.000000" y="60.000000" width="24.000000" height="24.000000" rx="0" ry="0" style="stroke:none;fill:#4B71A1;"/>
<text x="44.000000" y="74.000000" font-family="Arial" font-size="7" text-anchor="middle" fill="#FFFFFF">abs</text>
<circle cx="34.000000" cy="62.000000" r="1"/>
<line x1="29.000000" y1="71.000000" x2="32.000000" y2="72.000000"  transform="rotate(0.000000,32.000000,72.000000)" style="stroke: black; stroke-width:0.25;"/>
<line x1="29.000000" y1="73.000000" x2="32.000000" y2="72.000000"  transform="rotate(0.000000,32.000000,72.000000)" style="stroke: black; stroke-width:0.25;"/>
<rect x="121.000000" y="97.000000" width="24.000000" height="24.000000" rx="0.1" ry="0.1" style="stroke:none;fill:#aaaaaa;;filter:url(#filter);"/>
<rect x="120.000000" y="96.000000" width="24.000000" height="24.000000" rx="0" ry="0" style="stroke:none;fill:#4B71A1;"/>
<text x="132.000000" y="110.000000" font-family="Arial" font-size="7" text-anchor="middle" fill="#FFFFFF">max</text>
<circle cx="122.000000" cy="98.000000" r="1"/>
<line x1="117.000000" y1="103.000000" x2="120.000000" y2="104.000000"  transform="rotate(0.000000,120.000000,104.000000)" style="stroke: black; stroke-width:0.25;"/>
<line x1="117.000000" y1="105.000000" x2="120.000000" y2="104.000000"  transform="rotate(0.000000,120.000000,104.000000)" style="stroke: black; stroke-width:0.25;"/>
<line x1="117.000000" y1="111.000000" x2="120.000000" y2="112.000000"  transform="rotate(0.000000,120.000000,112.000000)" style="stroke: black; stroke-width:0.25;"/>
<line x1="117.000000" y1="113.000000" x2="120.000000" y2="112.000000"  transform="rotate(0.000000,120.000000,112.000000)" style="stroke: black; stroke-width:0.25;"/>
<rect x="161.000000" y="57.000000" width="24.000000" height="24.000000" rx="0.1" ry="0.1" style="stroke:none;fill:#aaaaaa;;filter:url(#filter);"/>
<rect x="160.000000" y="56.000000" width="24.000000" height="24.000000" rx="0" ry="0" style="stroke:none;fill:#f44800;"/>
<text x="172.000000" y="70.000000" font-family="Arial" font-size="7" text-anchor="middle" fill="#FFFFFF">1</text>
<circle cx="182.000000" cy="78.000000" r="1"/>
<a xlink:href="SR-0x9e96b90.svg">
<rect x="161.000000" y="25.000000" width="24.000000" height="24.000000" rx="0.1" ry="0.1" style="stroke:none;fill:#aaaaaa;;filter:url(#filter);"/>
<rect x="160.000000" y="24.000000" width="24.000000" height="24.000000" rx="0" ry="0" style="stroke:none;fill:#003366;"/>
</a>
<a xlink:href="SR-0x9e96b90.svg">
<text x="172.000000" y="38.000000" font-family="Arial" font-size="7" text-anchor="middle" fill="#FFFFFF">SR</text>
</a>
<circle cx="182.000000" cy="46.000000" r="1"/>
<rect x="121.000000" y="41.000000" width="24.000000" height="24.000000" rx="0.1" ry="0.1" style="stroke:none;fill:#aaaaaa;;filter:url(#filter);"/>
<rect x="120.000000" y="40.000000" width="24.000000" height="24.000000" rx="0" ry="0" style="stroke:none;fill:#4B71A1;"/>
<text x="132.000000" y="54.000000" font-family="Arial" font-size="7" text-anchor="middle" fill="#FFFFFF">/</text>
<circle cx="142.000000" cy="62.000000" r="1"/>
<line x1="147.000000" y1="55.000000" x2="144.000000" y2="56.000000"  transform="rotate(0.000000,144.000000,56.000000)" style="stroke: black; stroke-width:0.25;"/>
<line x1="147.000000" y1="57.000000" x2="144.000000" y2="56.000000"  transform="rotate(0.000000,144.000000,56.000000)" style="stroke: black; stroke-width:0.25;"/>
<line x1="147.000000" y1="47.000000" x2="144.000000" y2="48.000000"  transform="rotate(0.000000,144.000000,48.000000)" style="stroke: black; stroke-width:0.25;"/>
<line x1="147.000000" y1="49.000000" x2="144.000000" y2="48.000000"  transform="rotate(0.000000,144.000000,48.000000)" style="stroke: black; stroke-width:0.25;"/>
<rect x="81.000000" y="45.000000" width="24.000000" height="24.000000" rx="0.1" ry="0.1" style="stroke:none;fill:#aaaaaa;;filter:url(#filter);"/>
<rect x="80.000000" y="44.000000" width="24.000000" height="24.000000" rx="0" ry="0" style="stroke:none;fill:#4B71A1;"/>
<text x="92.000000" y="58.000000" font-family="Arial" font-size="7" text-anchor="middle" fill="#FFFFFF">-</text>
<circle cx="102.000000" cy="66.000000" r="1"/>
<line x1="107.000000" y1="59.000000" x2="104.000000" y2="60.000000"  transform="rotate(0.000000,104.000000,60.000000)" style="stroke: black; stroke-width:0.25;"/>
<line x1="107.000000" y1="61.000000" x2="104.000000" y2="60.000000"  transform="rotate(0.000000,104.000000,60.000000)" style="stroke: black; stroke-width:0.25;"/>
<line x1="107.000000" y1="51.000000" x2="104.000000" y2="52.000000"  transform="rotate(0.000000,104.000000,52.000000)" style="stroke: black; stroke-width:0.25;"/>
<line x1="107.000000" y1="53.000000" x2="104.000000" y2="52.000000"  transform="rotate(0.000000,104.000000,52.000000)" style="stroke: black; stroke-width:0.25;"/>
<line x1="186.000000" y1="108.000000" x2="186.000000" y2="104.000000"  style="stroke:black; stroke-linecap:round; stroke-width:0.25;"/>
<line x1="186.000000" y1="104.000000" x2="190.000000" y2="104.000000"  style="stroke:black; stroke-linecap:round; stroke-width:0.25;"/>
<line x1="190.000000" y1="104.000000" x2="190.000000" y2="108.000000"  style="stroke:black; stroke-linecap:round; stroke-width:0.25;"/>
<a xlink:href="db2linear-0x9e95ba0.svg">
<rect x="209.000000" y="57.000000" width="64.500000" height="24.000000" rx="0.1" ry="0.1" style="stroke:none;fill:#aaaaaa;;filter:url(#filter);"/>
<rect x="208.000000" y="56.000000" width="64.500000" height="24.000000" rx="0" ry="0" style="stroke:none;fill:#003366;"/>
</a>
<a xlink:href="db2linear-0x9e95ba0.svg">
<text x="240.250000" y="70.000000" font-family="Arial" font-size="7" text-anchor="middle" fill="#FFFFFF">db2linear(-70)</text>
</a>
<circle cx="210.000000" cy="58.000000" r="1"/>
<rect x="289.500000" y="61.000000" width="24.000000" height="24.000000" rx="0.1" ry="0.1" style="stroke:none;fill:#aaaaaa;;filter:url(#filter);"/>
<rect x="288.500000" y="60.000000" width="24.000000" height="24.000000" rx="0" ry="0" style="stroke:none;fill:#4B71A1;"/>
<text x="300.500000" y="74.000000" font-family="Arial" font-size="7" text-anchor="middle" fill="#FFFFFF">max</text>
<circle cx="290.500000" cy="62.000000" r="1"/>
<line x1="285.500000" y1="67.000000" x2="288.500000" y2="68.000000"  transform="rotate(0.000000,288.500000,68.000000)" style="stroke: black; stroke-width:0.25;"/>
<line x1="285.500000" y1="69.000000" x2="288.500000" y2="68.000000"  transform="rotate(0.000000,288.500000,68.000000)" style="stroke: black; stroke-width:0.25;"/>
<line x1="285.500000" y1="75.000000" x2="288.500000" y2="76.000000"  transform="rotate(0.000000,288.500000,76.000000)" style="stroke: black; stroke-width:0.25;"/>
<line x1="285.500000" y1="77.000000" x2="288.500000" y2="76.000000"  transform="rotate(0.000000,288.500000,76.000000)" style="stroke: black; stroke-width:0.25;"/>
<a xlink:href="linear2db-0x9f88b40.svg">
<rect x="321.500000" y="61.000000" width="38.700000" height="24.000000" rx="0.1" ry="0.1" style="stroke:none;fill:#aaaaaa;;filter:url(#filter);"/>
<rect x="320.500000" y="60.000000" width="38.700000" height="24.000000" rx="0" ry="0" style="stroke:none;fill:#003366;"/>
</a>
<a xlink:href="linear2db-0x9f88b40.svg">
<text x="339.850000" y="74.000000" font-family="Arial" font-size="7" text-anchor="middle" fill="#FFFFFF">linear2db</text>
</a>
<circle cx="322.500000" cy="62.000000" r="1"/>
<line x1="317.500000" y1="71.000000" x2="320.500000" y2="72.000000"  transform="rotate(0.000000,320.500000,72.000000)" style="stroke: black; stroke-width:0.25;"/>
<line x1="317.500000" y1="73.000000" x2="320.500000" y2="72.000000"  transform="rotate(0.000000,320.500000,72.000000)" style="stroke: black; stroke-width:0.25;"/>
<line x1="15.000000" y1="15.000000" x2="15.000000" y2="129.000000"  style="stroke: black; stroke-linecap:round; stroke-width:0.25; stroke-dasharray:3,3;"/>
<line x1="15.000000" y1="129.000000" x2="376.200000" y2="129.000000"  style="stroke: black; stroke-linecap:round; stroke-width:0.25; stroke-dasharray:3,3;"/>
<line x1="376.200000" y1="129.000000" x2="376.200000" y2="15.000000"  style="stroke: black; stroke-linecap:round; stroke-width:0.25; stroke-dasharray:3,3;"/>
<line x1="15.000000" y1="15.000000" x2="20.000000" y2="15.000000"  style="stroke: black; stroke-linecap:round; stroke-width:0.25; stroke-dasharray:3,3;"/>
<line x1="52.250000" y1="15.000000" x2="376.200000" y2="15.000000"  style="stroke: black; stroke-linecap:round; stroke-width:0.25; stroke-dasharray:3,3;"/>
<text x="20.000000" y="17.000000" font-family="Arial" font-size="7">envelope</text>
<line x1="378.200000" y1="71.000000" x2="381.200000" y2="72.000000"  transform="rotate(0.000000,381.200000,72.000000)" style="stroke: black; stroke-width:0.25;"/>
<line x1="378.200000" y1="73.000000" x2="381.200000" y2="72.000000"  transform="rotate(0.000000,381.200000,72.000000)" style="stroke: black; stroke-width:0.25;"/>
<line x1="10.000000" y1="72.000000" x2="20.000000" y2="72.000000"  style="stroke:black; stroke-linecap:round; stroke-width:0.25;"/>
<line x1="20.000000" y1="72.000000" x2="24.000000" y2="72.000000"  style="stroke:black; stroke-linecap:round; stroke-width:0.25;"/>
<line x1="24.000000" y1="72.000000" x2="28.000000" y2="72.000000"  style="stroke:black; stroke-linecap:round; stroke-width:0.25;"/>
<line x1="28.000000" y1="72.000000" x2="28.000000" y2="72.000000"  style="stroke:black; stroke-linecap:round; stroke-width:0.25;"/>
<line x1="28.000000" y1="72.000000" x2="32.000000" y2="72.000000"  style="stroke:black; stroke-linecap:round; stroke-width:0.25;"/>
<line x1="56.000000" y1="72.000000" x2="60.000000" y2="72.000000"  style="stroke:black; stroke-linecap:round; stroke-width:0.25;"/>
<line x1="60.000000" y1="72.000000" x2="68.000000" y2="72.000000"  style="stroke:black; stroke-linecap:round; stroke-width:0.25;"/>
<line x1="68.000000" y1="72.000000" x2="68.000000" y2="112.000000"  style="stroke:black; stroke-linecap:round; stroke-width:0.25;"/>
<line x1="68.000000" y1="112.000000" x2="68.000000" y2="112.000000"  style="stroke:black; stroke-linecap:round; stroke-width:0.25;"/>
<line x1="68.000000" y1="112.000000" x2="76.000000" y2="112.000000"  style="stroke:black; stroke-linecap:round; stroke-width:0.25;"/>
<line x1="76.000000" y1="56.000000" x2="76.000000" y2="56.000000"  style="stroke:black; stroke-linecap:round; stroke-width:0.25;"/>
<line x1="76.000000" y1="56.000000" x2="76.000000" y2="104.000000"  style="stroke:black; stroke-linecap:round; stroke-width:0.25;"/>
<line x1="76.000000" y1="104.000000" x2="76.000000" y2="104.000000"  style="stroke:black; stroke-linecap:round; stroke-width:0.25;"/>
<line x1="76.000000" y1="104.000000" x2="116.000000" y2="104.000000"  style="stroke:black; stroke-linecap:round; stroke-width:0.25;"/>
<line x1="76.000000" y1="112.000000" x2="116.000000" y2="112.000000"  style="stroke:black; stroke-linecap:round; stroke-width:0.25;"/>
<line x1="80.000000" y1="56.000000" x2="76.000000" y2="56.000000"  style="stroke:black; stroke-linecap:round; stroke-width:0.25;"/>
<line x1="108.000000" y1="52.000000" x2="104.000000" y2="52.000000"  style="stroke:black; stroke-linecap:round; stroke-width:0.25;"/>
<line x1="108.000000" y1="60.000000" x2="104.000000" y2="60.000000"  style="stroke:black; stroke-linecap:round; stroke-width:0.25;"/>
<line x1="108.000000" y1="60.000000" x2="108.000000" y2="60.000000"  style="stroke:black; stroke-linecap:round; stroke-width:0.25;"/>
<line x1="108.000000" y1="88.000000" x2="108.000000" y2="60.000000"  style="stroke:black; stroke-linecap:round; stroke-width:0.25;"/>
<line x1="116.000000" y1="52.000000" x2="108.000000" y2="52.000000"  style="stroke:black; stroke-linecap:round; stroke-width:0.25;"/>
<line x1="116.000000" y1="88.000000" x2="108.000000" y2="88.000000"  style="stroke:black; stroke-linecap:round; stroke-width:0.25;"/>
<line x1="116.000000" y1="104.000000" x2="120.000000" y2="104.000000"  style="stroke:black; stroke-linecap:round; stroke-width:0.25;"/>
<line x1="116.000000" y1="112.000000" x2="120.000000" y2="112.000000"  style="stroke:black; stroke-linecap:round; stroke-width:0.25;"/>
<line x1="120.000000" y1="52.000000" x2="116.000000" y2="52.000000"  style="stroke:black; stroke-linecap:round; stroke-width:0.25;"/>
<line x1="144.000000" y1="108.000000" x2="148.000000" y2="108.000000"  style="stroke:black; stroke-linecap:round; stroke-width:0.25;"/>
<line x1="148.000000" y1="48.000000" x2="144.000000" y2="48.000000"  style="stroke:black; stroke-linecap:round; stroke-width:0.25;"/>
<line x1="148.000000" y1="56.000000" x2="144.000000" y2="56.000000"  style="stroke:black; stroke-linecap:round; stroke-width:0.25;"/>
<line x1="148.000000" y1="56.000000" x2="148.000000" y2="56.000000"  style="stroke:black; stroke-linecap:round; stroke-width:0.25;"/>
<line x1="148.000000" y1="68.000000" x2="148.000000" y2="56.000000"  style="stroke:black; stroke-linecap:round; stroke-width:0.25;"/>
<line x1="148.000000" y1="108.000000" x2="188.000000" y2="108.000000"  style="stroke:black; stroke-linecap:round; stroke-width:0.25;"/>
<line x1="152.000000" y1="88.000000" x2="116.000000" y2="88.000000"  style="stroke:black; stroke-linecap:round; stroke-width:0.25;"/>
<line x1="156.000000" y1="36.000000" x2="156.000000" y2="36.000000"  style="stroke:black; stroke-linecap:round; stroke-width:0.25;"/>
<line x1="156.000000" y1="36.000000" x2="156.000000" y2="48.000000"  style="stroke:black; stroke-linecap:round; stroke-width:0.25;"/>
<line x1="156.000000" y1="48.000000" x2="148.000000" y2="48.000000"  style="stroke:black; stroke-linecap:round; stroke-width:0.25;"/>
<line x1="156.000000" y1="68.000000" x2="148.000000" y2="68.000000"  style="stroke:black; stroke-linecap:round; stroke-width:0.25;"/>
<line x1="160.000000" y1="36.000000" x2="156.000000" y2="36.000000"  style="stroke:black; stroke-linecap:round; stroke-width:0.25;"/>
<line x1="160.000000" y1="68.000000" x2="156.000000" y2="68.000000"  style="stroke:black; stroke-linecap:round; stroke-width:0.25;"/>
<line x1="188.000000" y1="88.000000" x2="152.000000" y2="88.000000"  style="stroke:black; stroke-linecap:round; stroke-width:0.25;"/>
<line x1="188.000000" y1="88.000000" x2="188.000000" y2="88.000000"  style="stroke:black; stroke-linecap:round; stroke-width:0.25;"/>
<line x1="188.000000" y1="104.000000" x2="188.000000" y2="88.000000"  style="stroke:black; stroke-linecap:round; stroke-width:0.25;"/>
<line x1="188.000000" y1="108.000000" x2="190.000000" y2="108.000000"  style="stroke:black; stroke-linecap:round; stroke-width:0.25;"/>
<line x1="190.000000" y1="108.000000" x2="196.000000" y2="108.000000"  style="stroke:black; stroke-linecap:round; stroke-width:0.25;"/>
<line x1="196.000000" y1="88.000000" x2="204.000000" y2="88.000000"  style="stroke:black; stroke-linecap:round; stroke-width:0.25;"/>
<line x1="196.000000" y1="108.000000" x2="196.000000" y2="88.000000"  style="stroke:black; stroke-linecap:round; stroke-width:0.25;"/>
<line x1="196.000000" y1="108.000000" x2="196.000000" y2="108.000000"  style="stroke:black; stroke-linecap:round; stroke-width:0.25;"/>
<line x1="204.000000" y1="88.000000" x2="240.250000" y2="88.000000"  style="stroke:black; stroke-linecap:round; stroke-width:0.25;"/>
<line x1="240.250000" y1="88.000000" x2="276.500000" y2="88.000000"  style="stroke:black; stroke-linecap:round; stroke-width:0.25;"/>
<line x1="272.500000" y1="68.000000" x2="276.500000" y2="68.000000"  style="stroke:black; stroke-linecap:round; stroke-width:0.25;"/>
<line x1="276.500000" y1="68.000000" x2="284.500000" y2="68.000000"  style="stroke:black; stroke-linecap:round; stroke-width:0.25;"/>
<line x1="276.500000" y1="76.000000" x2="284.500000" y2="76.000000"  style="stroke:black; stroke-linecap:round; stroke-width:0.25;"/>
<line x1="276.500000" y1="88.000000" x2="276.500000" y2="76.000000"  style="stroke:black; stroke-linecap:round; stroke-width:0.25;"/>
<line x1="276.500000" y1="88.000000" x2="276.500000" y2="88.000000"  style="stroke:black; stroke-linecap:round; stroke-width:0.25;"/>
<line x1="284.500000" y1="68.000000" x2="288.500000" y2="68.000000"  style="stroke:black; stroke-linecap:round; stroke-width:0.25;"/>
<line x1="284.500000" y1="76.000000" x2="288.500000" y2="76.000000"  style="stroke:black; stroke-linecap:round; stroke-width:0.25;"/>
<line x1="312.500000" y1="72.000000" x2="316.500000" y2="72.000000"  style="stroke:black; stroke-linecap:round; stroke-width:0.25;"/>
<line x1="316.500000" y1="72.000000" x2="316.500000" y2="72.000000"  style="stroke:black; stroke-linecap:round; stroke-width:0.25;"/>
<line x1="316.500000" y1="72.000000" x2="320.500000" y2="72.000000"  style="stroke:black; stroke-linecap:round; stroke-width:0.25;"/>
<line x1="359.200000" y1="72.000000" x2="363.200000" y2="72.000000"  style="stroke:black; stroke-linecap:round; stroke-width:0.25;"/>
<line x1="363.200000" y1="72.000000" x2="363.200000" y2="72.000000"  style="stroke:black; stroke-linecap:round; stroke-width:0.25;"/>
<line x1="363.200000" y1="72.000000" x2="367.200000" y2="72.000000"  style="stroke:black; stroke-linecap:round; stroke-width:0.25;"/>
<line x1="367.200000" y1="72.000000" x2="371.200000" y2="72.000000"  style="stroke:black; stroke-linecap:round; stroke-width:0.25;"/>
<line x1="371.200000" y1="72.000000" x2="381.200000" y2="72.000000"  style="stroke:black; stroke-linecap:round; stroke-width:0.25;"/>
</svg>
