<?xml version="1.0"?>
<svg xmlns="http://www.w3.org/2000/svg" xmlns:xlink="http://www.w3.org/1999/xlink" viewBox="0 0 779.200000 104.000000" width="389.600000mm" height="52.000000mm" version="1.1">
<defs>
   <filter id="filter" filterRes="18" x="0" y="0">
     <feGaussianBlur in="SourceGraphic" stdDeviation="1.55" result="blur"/>
     <feOffset in="blur" dx="3" dy="3"/>
   </filter>
</defs>
<a xlink:href="qompander-0x9f87ec0.svg">
<rect x="1.000000" y="1.000000" width="778.200000" height="103.000000" rx="0.1" ry="0.1" style="stroke:none;fill:#aaaaaa;;filter:url(#filter);"/>
<rect x="0.000000" y="0.000000" width="778.200000" height="103.000000" rx="0" ry="0" style="stroke:none;fill:#ffffff;"/>
</a>
<text x="10.000000" y="7.000000" font-family="Arial" font-size="7"></text>
<rect x="25.900000" y="25.000000" width="24.000000" height="24.000000" rx="0.1" ry="0.1" style="stroke:none;fill:#aaaaaa;;filter:url(#filter);"/>
<rect x="24.900000" y="24.000000" width="24.000000" height="24.000000" rx="0" ry="0" style="stroke:none;fill:#47945E;"/>
<text x="36.900000" y="38.000000" font-family="Arial" font-size="7" text-anchor="middle" fill="#FFFFFF">x</text>
<circle cx="26.900000" cy="26.000000" r="1"/>
<a xlink:href="gain-0x9e99280.svg">
<rect x="25.000000" y="57.000000" width="25.800000" height="24.000000" rx="0.1" ry="0.1" style="stroke:none;fill:#aaaaaa;;filter:url(#filter);"/>
<rect x="24.000000" y="56.000000" width="25.800000" height="24.000000" rx="0" ry="0" style="stroke:none;fill:#003366;"/>
</a>
<a xlink:href="gain-0x9e99280.svg">
<text x="36.900000" y="70.000000" font-family="Arial" font-size="7" text-anchor="middle" fill="#FFFFFF">gain</text>
</a>
<circle cx="26.000000" cy="58.000000" r="1"/>
<rect x="66.800000" y="41.000000" width="24.000000" height="24.000000" rx="0.1" ry="0.1" style="stroke:none;fill:#aaaaaa;;filter:url(#filter);"/>
<rect x="65.800000" y="40.000000" width="24.000000" height="24.000000" rx="0" ry="0" style="stroke:none;fill:#4B71A1;"/>
<text x="77.800000" y="54.000000" font-family="Arial" font-size="7" text-anchor="middle" fill="#FFFFFF">*</text>
<circle cx="67.800000" cy="42.000000" r="1"/>
<line x1="62.800000" y1="47.000000" x2="65.800000" y2="48.000000"  transform="rotate(0.000000,65.800000,48.000000)" style="stroke: black; stroke-width:0.25;"/>
<line x1="62.800000" y1="49.000000" x2="65.800000" y2="48.000000"  transform="rotate(0.000000,65.800000,48.000000)" style="stroke: black; stroke-width:0.25;"/>
<line x1="62.800000" y1="55.000000" x2="65.800000" y2="56.000000"  transform="rotate(0.000000,65.800000,56.000000)" style="stroke: black; stroke-width:0.25;"/>
<line x1="62.800000" y1="57.000000" x2="65.800000" y2="56.000000"  transform="rotate(0.000000,65.800000,56.000000)" style="stroke: black; stroke-width:0.25;"/>
<rect x="98.800000" y="41.000000" width="24.000000" height="24.000000" rx="0.1" ry="0.1" style="stroke:none;fill:#aaaaaa;;filter:url(#filter);"/>
<rect x="97.800000" y="40.000000" width="24.000000" height="24.000000" rx="0" ry="0" style="stroke:none;fill:#4B71A1;"/>
<text x="109.800000" y="54.000000" font-family="Arial" font-size="7" text-anchor="middle" fill="#FFFFFF">mem</text>
<circle cx="99.800000" cy="42.000000" r="1"/>
<line x1="94.800000" y1="51.000000" x2="97.800000" y2="52.000000"  transform="rotate(0.000000,97.800000,52.000000)" style="stroke: black; stroke-width:0.25;"/>
<line x1="94.800000" y1="53.000000" x2="97.800000" y2="52.000000"  transform="rotate(0.000000,97.800000,52.000000)" style="stroke: black; stroke-width:0.25;"/>
<a xlink:href="tf2-0x9f34e80.svg">
<rect x="130.800000" y="41.000000" width="154.800000" height="24.000000" rx="0.1" ry="0.1" style="stroke:none;fill:#aaaaaa;;filter:url(#filter);"/>
<rect x="129.800000" y="40.000000" width="154.800000" height="24.000000" rx="0" ry="0" style="stroke:none;fill:#003366;"/>
</a>
<a xlink:href="tf2-0x9f34e80.svg">
<text x="207.200000" y="54.000000" font-family="Arial" font-size="7" text-anchor="middle" fill="#FFFFFF">tf2(0.479401)(0)(-1)(0)(-0.479401)</text>
</a>
<circle cx="131.800000" cy="42.000000" r="1"/>
<line x1="126.800000" y1="51.000000" x2="129.800000" y2="52.000000"  transform="rotate(0.000000,129.800000,52.000000)" style="stroke: black; stroke-width:0.25;"/>
<line x1="126.800000" y1="53.000000" x2="129.800000" y2="52.000000"  transform="rotate(0.000000,129.800000,52.000000)" style="stroke: black; stroke-width:0.25;"/>
<a xlink:href="tf2-0x9f35100.svg">
<rect x="293.600000" y="41.000000" width="154.800000" height="24.000000" rx="0.1" ry="0.1" style="stroke:none;fill:#aaaaaa;;filter:url(#filter);"/>
<rect x="292.600000" y="40.000000" width="154.800000" height="24.000000" rx="0" ry="0" style="stroke:none;fill:#003366;"/>
</a>
<a xlink:href="tf2-0x9f35100.svg">
<text x="370.000000" y="54.000000" font-family="Arial" font-size="7" text-anchor="middle" fill="#FFFFFF">tf2(0.876218)(0)(-1)(0)(-0.876218)</text>
</a>
<circle cx="294.600000" cy="42.000000" r="1"/>
<line x1="289.600000" y1="51.000000" x2="292.600000" y2="52.000000"  transform="rotate(0.000000,292.600000,52.000000)" style="stroke: black; stroke-width:0.25;"/>
<line x1="289.600000" y1="53.000000" x2="292.600000" y2="52.000000"  transform="rotate(0.000000,292.600000,52.000000)" style="stroke: black; stroke-width:0.25;"/>
<a xlink:href="tf2-0x9f35380.svg">
<rect x="456.400000" y="41.000000" width="154.800000" height="24.000000" rx="0.1" ry="0.1" style="stroke:none;fill:#aaaaaa;;filter:url(#filter);"/>
<rect x="455.400000" y="40.000000" width="154.800000" height="24.000000" rx="0" ry="0" style="stroke:none;fill:#003366;"/>
</a>
<a xlink:href="tf2-0x9f35380.svg">
<text x="532.800000" y="54.000000" font-family="Arial" font-size="7" text-anchor="middle" fill="#FFFFFF">tf2(0.976599)(0)(-1)(0)(-0.976599)</text>
</a>
<circle cx="457.400000" cy="42.000000" r="1"/>
<line x1="452.400000" y1="51.000000" x2="455.400000" y2="52.000000"  transform="rotate(0.000000,455.400000,52.000000)" style="stroke: black; stroke-width:0.25;"/>
<line x1="452.400000" y1="53.000000" x2="455.400000" y2="52.000000"  transform="rotate(0.000000,455.400000,52.000000)" style="stroke: black; stroke-width:0.25;"/>
<a xlink:href="tf2-0x9f355f0.svg">
<rect x="619.200000" y="41.000000" width="129.000000" height="24.000000" rx="0.1" ry="0.1" style="stroke:none;fill:#aaaaaa;;filter:url(#filter);"/>
<rect x="618.200000" y="40.000000" width="129.000000" height="24.000000" rx="0" ry="0" style="stroke:none;fill:#003366;"/>
</a>
<a xlink:href="tf2-0x9f355f0.svg">
<text x="682.700000" y="54.000000" font-family="Arial" font-size="7" text-anchor="middle" fill="#FFFFFF">tf2(0.9975)(0)(-1)(0)(-0.9975)</text>
</a>
<circle cx="620.200000" cy="42.000000" r="1"/>
<line x1="615.200000" y1="51.000000" x2="618.200000" y2="52.000000"  transform="rotate(0.000000,618.200000,52.000000)" style="stroke: black; stroke-width:0.25;"/>
<line x1="615.200000" y1="53.000000" x2="618.200000" y2="52.000000"  transform="rotate(0.000000,618.200000,52.000000)" style="stroke: black; stroke-width:0.25;"/>
<line x1="15.000000" y1="15.000000" x2="15.000000" y2="89.000000"  style="stroke: black; stroke-linecap:round; stroke-width:0.25; stroke-dasharray:3,3;"/>
<line x1="15.000000" y1="89.000000" x2="764.200000" y2="89.000000"  style="stroke: black; stroke-linecap:round; stroke-width:0.25; stroke-dasharray:3,3;"/>
<line x1="764.200000" y1="89.000000" x2="764.200000" y2="15.000000"  style="stroke: black; stroke-linecap:round; stroke-width:0.25; stroke-dasharray:3,3;"/>
<line x1="15.000000" y1="15.000000" x2="20.000000" y2="15.000000"  style="stroke: black; stroke-linecap:round; stroke-width:0.25; stroke-dasharray:3,3;"/>
<line x1="119.975000" y1="15.000000" x2="764.200000" y2="15.000000"  style="stroke: black; stroke-linecap:round; stroke-width:0.25; stroke-dasharray:3,3;"/>
<text x="20.000000" y="17.000000" font-family="Arial" font-size="7">olli2(#1,(hsl...,0.999:*)):*)</text>
<line x1="766.200000" y1="51.000000" x2="769.200000" y2="52.000000"  transform="rotate(0.000000,769.200000,52.000000)" style="stroke: black; stroke-width:0.25;"/>
<line x1="766.200000" y1="53.000000" x2="769.200000" y2="52.000000"  transform="rotate(0.000000,769.200000,52.000000)" style="stroke: black; stroke-width:0.25;"/>
<line x1="48.900000" y1="36.000000" x2="52.900000" y2="36.000000"  style="stroke:black; stroke-linecap:round; stroke-width:0.25;"/>
<line x1="49.800000" y1="68.000000" x2="53.800000" y2="68.000000"  style="stroke:black; stroke-linecap:round; stroke-width:0.25;"/>
<line x1="52.900000" y1="36.000000" x2="53.800000" y2="36.000000"  style="stroke:black; stroke-linecap:round; stroke-width:0.25;"/>
<line x1="53.800000" y1="36.000000" x2="61.800000" y2="36.000000"  style="stroke:black; stroke-linecap:round; stroke-width:0.25;"/>
<line x1="53.800000" y1="56.000000" x2="61.800000" y2="56.000000"  style="stroke:black; stroke-linecap:round; stroke-width:0.25;"/>
<line x1="53.800000" y1="68.000000" x2="53.800000" y2="56.000000"  style="stroke:black; stroke-linecap:round; stroke-width:0.25;"/>
<line x1="53.800000" y1="68.000000" x2="53.800000" y2="68.000000"  style="stroke:black; stroke-linecap:round; stroke-width:0.25;"/>
<line x1="61.800000" y1="36.000000" x2="61.800000" y2="48.000000"  style="stroke:black; stroke-linecap:round; stroke-width:0.25;"/>
<line x1="61.800000" y1="48.000000" x2="61.800000" y2="48.000000"  style="stroke:black; stroke-linecap:round; stroke-width:0.25;"/>
<line x1="61.800000" y1="48.000000" x2="65.800000" y2="48.000000"  style="stroke:black; stroke-linecap:round; stroke-width:0.25;"/>
<line x1="61.800000" y1="56.000000" x2="65.800000" y2="56.000000"  style="stroke:black; stroke-linecap:round; stroke-width:0.25;"/>
<line x1="89.800000" y1="52.000000" x2="93.800000" y2="52.000000"  style="stroke:black; stroke-linecap:round; stroke-width:0.25;"/>
<line x1="93.800000" y1="52.000000" x2="93.800000" y2="52.000000"  style="stroke:black; stroke-linecap:round; stroke-width:0.25;"/>
<line x1="93.800000" y1="52.000000" x2="97.800000" y2="52.000000"  style="stroke:black; stroke-linecap:round; stroke-width:0.25;"/>
<line x1="121.800000" y1="52.000000" x2="125.800000" y2="52.000000"  style="stroke:black; stroke-linecap:round; stroke-width:0.25;"/>
<line x1="125.800000" y1="52.000000" x2="125.800000" y2="52.000000"  style="stroke:black; stroke-linecap:round; stroke-width:0.25;"/>
<line x1="125.800000" y1="52.000000" x2="129.800000" y2="52.000000"  style="stroke:black; stroke-linecap:round; stroke-width:0.25;"/>
<line x1="284.600000" y1="52.000000" x2="288.600000" y2="52.000000"  style="stroke:black; stroke-linecap:round; stroke-width:0.25;"/>
<line x1="288.600000" y1="52.000000" x2="288.600000" y2="52.000000"  style="stroke:black; stroke-linecap:round; stroke-width:0.25;"/>
<line x1="288.600000" y1="52.000000" x2="292.600000" y2="52.000000"  style="stroke:black; stroke-linecap:round; stroke-width:0.25;"/>
<line x1="447.400000" y1="52.000000" x2="451.400000" y2="52.000000"  style="stroke:black; stroke-linecap:round; stroke-width:0.25;"/>
<line x1="451.400000" y1="52.000000" x2="451.400000" y2="52.000000"  style="stroke:black; stroke-linecap:round; stroke-width:0.25;"/>
<line x1="451.400000" y1="52.000000" x2="455.400000" y2="52.000000"  style="stroke:black; stroke-linecap:round; stroke-width:0.25;"/>
<line x1="610.200000" y1="52.000000" x2="614.200000" y2="52.000000"  style="stroke:black; stroke-linecap:round; stroke-width:0.25;"/>
<line x1="614.200000" y1="52.000000" x2="614.200000" y2="52.000000"  style="stroke:black; stroke-linecap:round; stroke-width:0.25;"/>
<line x1="614.200000" y1="52.000000" x2="618.200000" y2="52.000000"  style="stroke:black; stroke-linecap:round; stroke-width:0.25;"/>
<line x1="747.200000" y1="52.000000" x2="751.200000" y2="52.000000"  style="stroke:black; stroke-linecap:round; stroke-width:0.25;"/>
<line x1="751.200000" y1="52.000000" x2="755.200000" y2="52.000000"  style="stroke:black; stroke-linecap:round; stroke-width:0.25;"/>
<line x1="751.200000" y1="52.000000" x2="751.200000" y2="52.000000"  style="stroke:black; stroke-linecap:round; stroke-width:0.25;"/>
<line x1="755.200000" y1="52.000000" x2="759.200000" y2="52.000000"  style="stroke:black; stroke-linecap:round; stroke-width:0.25;"/>
<line x1="759.200000" y1="52.000000" x2="769.200000" y2="52.000000"  style="stroke:black; stroke-linecap:round; stroke-width:0.25;"/>
</svg>
