<?xml version="1.0"?>
<svg xmlns="http://www.w3.org/2000/svg" xmlns:xlink="http://www.w3.org/1999/xlink" viewBox="0 0 562.700000 192.000000" width="281.350000mm" height="96.000000mm" version="1.1">
<defs>
   <filter id="filter" filterRes="18" x="0" y="0">
     <feGaussianBlur in="SourceGraphic" stdDeviation="1.55" result="blur"/>
     <feOffset in="blur" dx="3" dy="3"/>
   </filter>
</defs>
<a xlink:href="olli1-0x9f34ab0.svg">
<rect x="1.000000" y="1.000000" width="561.700000" height="191.000000" rx="0.1" ry="0.1" style="stroke:none;fill:#aaaaaa;;filter:url(#filter);"/>
<rect x="0.000000" y="0.000000" width="561.700000" height="191.000000" rx="0" ry="0" style="stroke:none;fill:#ffffff;"/>
</a>
<text x="10.000000" y="7.000000" font-family="Arial" font-size="7"></text>
<a xlink:href="sub-0x9f33448.svg">
<rect x="146.350000" y="125.000000" width="24.000000" height="24.000000" rx="0.1" ry="0.1" style="stroke:none;fill:#aaaaaa;;filter:url(#filter);"/>
<rect x="145.350000" y="124.000000" width="24.000000" height="24.000000" rx="0" ry="0" style="stroke:none;fill:#003366;"/>
</a>
<a xlink:href="sub-0x9f33448.svg">
<text x="157.350000" y="138.000000" font-family="Arial" font-size="7" text-anchor="middle" fill="#FFFFFF">sub</text>
</a>
<circle cx="147.350000" cy="126.000000" r="1"/>
<line x1="142.350000" y1="131.000000" x2="145.350000" y2="132.000000"  transform="rotate(0.000000,145.350000,132.000000)" style="stroke: black; stroke-width:0.25;"/>
<line x1="142.350000" y1="133.000000" x2="145.350000" y2="132.000000"  transform="rotate(0.000000,145.350000,132.000000)" style="stroke: black; stroke-width:0.25;"/>
<line x1="142.350000" y1="139.000000" x2="145.350000" y2="140.000000"  transform="rotate(0.000000,145.350000,140.000000)" style="stroke: black; stroke-width:0.25;"/>
<line x1="142.350000" y1="141.000000" x2="145.350000" y2="140.000000"  transform="rotate(0.000000,145.350000,140.000000)" style="stroke: black; stroke-width:0.25;"/>
<rect x="166.350000" y="85.000000" width="24.000000" height="24.000000" rx="0.1" ry="0.1" style="stroke:none;fill:#aaaaaa;;filter:url(#filter);"/>
<rect x="165.350000" y="84.000000" width="24.000000" height="24.000000" rx="0" ry="0" style="stroke:none;fill:#f44800;"/>
<text x="177.350000" y="98.000000" font-family="Arial" font-size="7" text-anchor="middle" fill="#FFFFFF">0</text>
<circle cx="187.350000" cy="106.000000" r="1"/>
<rect x="126.350000" y="89.000000" width="24.000000" height="24.000000" rx="0.1" ry="0.1" style="stroke:none;fill:#aaaaaa;;filter:url(#filter);"/>
<rect x="125.350000" y="88.000000" width="24.000000" height="24.000000" rx="0" ry="0" style="stroke:none;fill:#4B71A1;"/>
<text x="137.350000" y="102.000000" font-family="Arial" font-size="7" text-anchor="middle" fill="#FFFFFF">*</text>
<circle cx="147.350000" cy="110.000000" r="1"/>
<line x1="152.350000" y1="103.000000" x2="149.350000" y2="104.000000"  transform="rotate(0.000000,149.350000,104.000000)" style="stroke: black; stroke-width:0.25;"/>
<line x1="152.350000" y1="105.000000" x2="149.350000" y2="104.000000"  transform="rotate(0.000000,149.350000,104.000000)" style="stroke: black; stroke-width:0.25;"/>
<line x1="152.350000" y1="95.000000" x2="149.350000" y2="96.000000"  transform="rotate(0.000000,149.350000,96.000000)" style="stroke: black; stroke-width:0.25;"/>
<line x1="152.350000" y1="97.000000" x2="149.350000" y2="96.000000"  transform="rotate(0.000000,149.350000,96.000000)" style="stroke: black; stroke-width:0.25;"/>
<rect x="213.700000" y="45.000000" width="24.000000" height="24.000000" rx="0.1" ry="0.1" style="stroke:none;fill:#aaaaaa;;filter:url(#filter);"/>
<rect x="212.700000" y="44.000000" width="24.000000" height="24.000000" rx="0" ry="0" style="stroke:none;fill:#f44800;"/>
<text x="224.700000" y="58.000000" font-family="Arial" font-size="7" text-anchor="middle" fill="#FFFFFF">1</text>
<circle cx="234.700000" cy="66.000000" r="1"/>
<rect x="173.700000" y="49.000000" width="24.000000" height="24.000000" rx="0.1" ry="0.1" style="stroke:none;fill:#aaaaaa;;filter:url(#filter);"/>
<rect x="172.700000" y="48.000000" width="24.000000" height="24.000000" rx="0" ry="0" style="stroke:none;fill:#4B71A1;"/>
<text x="184.700000" y="62.000000" font-family="Arial" font-size="7" text-anchor="middle" fill="#FFFFFF">@</text>
<circle cx="194.700000" cy="70.000000" r="1"/>
<line x1="199.700000" y1="63.000000" x2="196.700000" y2="64.000000"  transform="rotate(0.000000,196.700000,64.000000)" style="stroke: black; stroke-width:0.25;"/>
<line x1="199.700000" y1="65.000000" x2="196.700000" y2="64.000000"  transform="rotate(0.000000,196.700000,64.000000)" style="stroke: black; stroke-width:0.25;"/>
<line x1="199.700000" y1="55.000000" x2="196.700000" y2="56.000000"  transform="rotate(0.000000,196.700000,56.000000)" style="stroke: black; stroke-width:0.25;"/>
<line x1="199.700000" y1="57.000000" x2="196.700000" y2="56.000000"  transform="rotate(0.000000,196.700000,56.000000)" style="stroke: black; stroke-width:0.25;"/>
<rect x="119.000000" y="45.000000" width="38.700000" height="24.000000" rx="0.1" ry="0.1" style="stroke:none;fill:#aaaaaa;;filter:url(#filter);"/>
<rect x="118.000000" y="44.000000" width="38.700000" height="24.000000" rx="0" ry="0" style="stroke:none;fill:#f44800;"/>
<text x="137.350000" y="58.000000" font-family="Arial" font-size="7" text-anchor="middle" fill="#FFFFFF">-0.161758</text>
<circle cx="154.700000" cy="66.000000" r="1"/>
<rect x="79.000000" y="49.000000" width="24.000000" height="24.000000" rx="0.1" ry="0.1" style="stroke:none;fill:#aaaaaa;;filter:url(#filter);"/>
<rect x="78.000000" y="48.000000" width="24.000000" height="24.000000" rx="0" ry="0" style="stroke:none;fill:#4B71A1;"/>
<text x="90.000000" y="62.000000" font-family="Arial" font-size="7" text-anchor="middle" fill="#FFFFFF">*</text>
<circle cx="100.000000" cy="70.000000" r="1"/>
<line x1="105.000000" y1="63.000000" x2="102.000000" y2="64.000000"  transform="rotate(0.000000,102.000000,64.000000)" style="stroke: black; stroke-width:0.25;"/>
<line x1="105.000000" y1="65.000000" x2="102.000000" y2="64.000000"  transform="rotate(0.000000,102.000000,64.000000)" style="stroke: black; stroke-width:0.25;"/>
<line x1="105.000000" y1="55.000000" x2="102.000000" y2="56.000000"  transform="rotate(0.000000,102.000000,56.000000)" style="stroke: black; stroke-width:0.25;"/>
<line x1="105.000000" y1="57.000000" x2="102.000000" y2="56.000000"  transform="rotate(0.000000,102.000000,56.000000)" style="stroke: black; stroke-width:0.25;"/>
<line x1="268.700000" y1="136.000000" x2="268.700000" y2="132.000000"  style="stroke:black; stroke-linecap:round; stroke-width:0.25;"/>
<line x1="268.700000" y1="132.000000" x2="272.700000" y2="132.000000"  style="stroke:black; stroke-linecap:round; stroke-width:0.25;"/>
<line x1="272.700000" y1="132.000000" x2="272.700000" y2="136.000000"  style="stroke:black; stroke-linecap:round; stroke-width:0.25;"/>
<rect x="372.350000" y="33.000000" width="38.700000" height="24.000000" rx="0.1" ry="0.1" style="stroke:none;fill:#aaaaaa;;filter:url(#filter);"/>
<rect x="371.350000" y="32.000000" width="38.700000" height="24.000000" rx="0" ry="0" style="stroke:none;fill:#f44800;"/>
<text x="390.700000" y="46.000000" font-family="Arial" font-size="7" text-anchor="middle" fill="#FFFFFF">0.161758</text>
<circle cx="373.350000" cy="34.000000" r="1"/>
<rect x="427.050000" y="29.000000" width="24.000000" height="24.000000" rx="0.1" ry="0.1" style="stroke:none;fill:#aaaaaa;;filter:url(#filter);"/>
<rect x="426.050000" y="28.000000" width="24.000000" height="24.000000" rx="0" ry="0" style="stroke:none;fill:#4B71A1;"/>
<text x="438.050000" y="42.000000" font-family="Arial" font-size="7" text-anchor="middle" fill="#FFFFFF">*</text>
<circle cx="428.050000" cy="30.000000" r="1"/>
<line x1="423.050000" y1="35.000000" x2="426.050000" y2="36.000000"  transform="rotate(0.000000,426.050000,36.000000)" style="stroke: black; stroke-width:0.25;"/>
<line x1="423.050000" y1="37.000000" x2="426.050000" y2="36.000000"  transform="rotate(0.000000,426.050000,36.000000)" style="stroke: black; stroke-width:0.25;"/>
<line x1="423.050000" y1="43.000000" x2="426.050000" y2="44.000000"  transform="rotate(0.000000,426.050000,44.000000)" style="stroke: black; stroke-width:0.25;"/>
<line x1="423.050000" y1="45.000000" x2="426.050000" y2="44.000000"  transform="rotate(0.000000,426.050000,44.000000)" style="stroke: black; stroke-width:0.25;"/>
<rect x="339.700000" y="73.000000" width="24.000000" height="24.000000" rx="0.1" ry="0.1" style="stroke:none;fill:#aaaaaa;;filter:url(#filter);"/>
<rect x="338.700000" y="72.000000" width="24.000000" height="24.000000" rx="0" ry="0" style="stroke:none;fill:#f44800;"/>
<text x="350.700000" y="86.000000" font-family="Arial" font-size="7" text-anchor="middle" fill="#FFFFFF">1</text>
<circle cx="340.700000" cy="74.000000" r="1"/>
<rect x="379.700000" y="69.000000" width="24.000000" height="24.000000" rx="0.1" ry="0.1" style="stroke:none;fill:#aaaaaa;;filter:url(#filter);"/>
<rect x="378.700000" y="68.000000" width="24.000000" height="24.000000" rx="0" ry="0" style="stroke:none;fill:#4B71A1;"/>
<text x="390.700000" y="82.000000" font-family="Arial" font-size="7" text-anchor="middle" fill="#FFFFFF">@</text>
<circle cx="380.700000" cy="70.000000" r="1"/>
<line x1="375.700000" y1="75.000000" x2="378.700000" y2="76.000000"  transform="rotate(0.000000,378.700000,76.000000)" style="stroke: black; stroke-width:0.25;"/>
<line x1="375.700000" y1="77.000000" x2="378.700000" y2="76.000000"  transform="rotate(0.000000,378.700000,76.000000)" style="stroke: black; stroke-width:0.25;"/>
<line x1="375.700000" y1="83.000000" x2="378.700000" y2="84.000000"  transform="rotate(0.000000,378.700000,84.000000)" style="stroke: black; stroke-width:0.25;"/>
<line x1="375.700000" y1="85.000000" x2="378.700000" y2="84.000000"  transform="rotate(0.000000,378.700000,84.000000)" style="stroke: black; stroke-width:0.25;"/>
<rect x="419.700000" y="73.000000" width="24.000000" height="24.000000" rx="0.1" ry="0.1" style="stroke:none;fill:#aaaaaa;;filter:url(#filter);"/>
<rect x="418.700000" y="72.000000" width="24.000000" height="24.000000" rx="0" ry="0" style="stroke:none;fill:#f44800;"/>
<text x="430.700000" y="86.000000" font-family="Arial" font-size="7" text-anchor="middle" fill="#FFFFFF">0</text>
<circle cx="420.700000" cy="74.000000" r="1"/>
<rect x="459.700000" y="69.000000" width="24.000000" height="24.000000" rx="0.1" ry="0.1" style="stroke:none;fill:#aaaaaa;;filter:url(#filter);"/>
<rect x="458.700000" y="68.000000" width="24.000000" height="24.000000" rx="0" ry="0" style="stroke:none;fill:#4B71A1;"/>
<text x="470.700000" y="82.000000" font-family="Arial" font-size="7" text-anchor="middle" fill="#FFFFFF">*</text>
<circle cx="460.700000" cy="70.000000" r="1"/>
<line x1="455.700000" y1="75.000000" x2="458.700000" y2="76.000000"  transform="rotate(0.000000,458.700000,76.000000)" style="stroke: black; stroke-width:0.25;"/>
<line x1="455.700000" y1="77.000000" x2="458.700000" y2="76.000000"  transform="rotate(0.000000,458.700000,76.000000)" style="stroke: black; stroke-width:0.25;"/>
<line x1="455.700000" y1="83.000000" x2="458.700000" y2="84.000000"  transform="rotate(0.000000,458.700000,84.000000)" style="stroke: black; stroke-width:0.25;"/>
<line x1="455.700000" y1="85.000000" x2="458.700000" y2="84.000000"  transform="rotate(0.000000,458.700000,84.000000)" style="stroke: black; stroke-width:0.25;"/>
<rect x="349.700000" y="113.000000" width="24.000000" height="24.000000" rx="0.1" ry="0.1" style="stroke:none;fill:#aaaaaa;;filter:url(#filter);"/>
<rect x="348.700000" y="112.000000" width="24.000000" height="24.000000" rx="0" ry="0" style="stroke:none;fill:#f44800;"/>
<text x="360.700000" y="126.000000" font-family="Arial" font-size="7" text-anchor="middle" fill="#FFFFFF">1</text>
<circle cx="350.700000" cy="114.000000" r="1"/>
<rect x="349.700000" y="145.000000" width="24.000000" height="24.000000" rx="0.1" ry="0.1" style="stroke:none;fill:#aaaaaa;;filter:url(#filter);"/>
<rect x="348.700000" y="144.000000" width="24.000000" height="24.000000" rx="0" ry="0" style="stroke:none;fill:#f44800;"/>
<text x="360.700000" y="158.000000" font-family="Arial" font-size="7" text-anchor="middle" fill="#FFFFFF">1</text>
<circle cx="350.700000" cy="146.000000" r="1"/>
<rect x="389.700000" y="129.000000" width="24.000000" height="24.000000" rx="0.1" ry="0.1" style="stroke:none;fill:#aaaaaa;;filter:url(#filter);"/>
<rect x="388.700000" y="128.000000" width="24.000000" height="24.000000" rx="0" ry="0" style="stroke:none;fill:#4B71A1;"/>
<text x="400.700000" y="142.000000" font-family="Arial" font-size="7" text-anchor="middle" fill="#FFFFFF">+</text>
<circle cx="390.700000" cy="130.000000" r="1"/>
<line x1="385.700000" y1="135.000000" x2="388.700000" y2="136.000000"  transform="rotate(0.000000,388.700000,136.000000)" style="stroke: black; stroke-width:0.25;"/>
<line x1="385.700000" y1="137.000000" x2="388.700000" y2="136.000000"  transform="rotate(0.000000,388.700000,136.000000)" style="stroke: black; stroke-width:0.25;"/>
<line x1="385.700000" y1="143.000000" x2="388.700000" y2="144.000000"  transform="rotate(0.000000,388.700000,144.000000)" style="stroke: black; stroke-width:0.25;"/>
<line x1="385.700000" y1="145.000000" x2="388.700000" y2="144.000000"  transform="rotate(0.000000,388.700000,144.000000)" style="stroke: black; stroke-width:0.25;"/>
<rect x="429.700000" y="125.000000" width="24.000000" height="24.000000" rx="0.1" ry="0.1" style="stroke:none;fill:#aaaaaa;;filter:url(#filter);"/>
<rect x="428.700000" y="124.000000" width="24.000000" height="24.000000" rx="0" ry="0" style="stroke:none;fill:#4B71A1;"/>
<text x="440.700000" y="138.000000" font-family="Arial" font-size="7" text-anchor="middle" fill="#FFFFFF">@</text>
<circle cx="430.700000" cy="126.000000" r="1"/>
<line x1="425.700000" y1="131.000000" x2="428.700000" y2="132.000000"  transform="rotate(0.000000,428.700000,132.000000)" style="stroke: black; stroke-width:0.25;"/>
<line x1="425.700000" y1="133.000000" x2="428.700000" y2="132.000000"  transform="rotate(0.000000,428.700000,132.000000)" style="stroke: black; stroke-width:0.25;"/>
<line x1="425.700000" y1="139.000000" x2="428.700000" y2="140.000000"  transform="rotate(0.000000,428.700000,140.000000)" style="stroke: black; stroke-width:0.25;"/>
<line x1="425.700000" y1="141.000000" x2="428.700000" y2="140.000000"  transform="rotate(0.000000,428.700000,140.000000)" style="stroke: black; stroke-width:0.25;"/>
<polygon fill="#ffffff" stroke="black" stroke-width=".25" points="460.700012,132.500000 469.700012,136.000000 460.700012,139.500000"/>
<circle  fill="#ffffff" stroke="black" stroke-width=".25" cx="471.200012" cy="136.000000" r="1.500000"/>
<line x1="15.000000" y1="15.000000" x2="15.000000" y2="177.000000"  style="stroke: black; stroke-linecap:round; stroke-width:0.25; stroke-dasharray:3,3;"/>
<line x1="15.000000" y1="177.000000" x2="547.700000" y2="177.000000"  style="stroke: black; stroke-linecap:round; stroke-width:0.25; stroke-dasharray:3,3;"/>
<line x1="547.700000" y1="177.000000" x2="547.700000" y2="15.000000"  style="stroke: black; stroke-linecap:round; stroke-width:0.25; stroke-dasharray:3,3;"/>
<line x1="15.000000" y1="15.000000" x2="20.000000" y2="15.000000"  style="stroke: black; stroke-linecap:round; stroke-width:0.25; stroke-dasharray:3,3;"/>
<line x1="136.100000" y1="15.000000" x2="547.700000" y2="15.000000"  style="stroke: black; stroke-linecap:round; stroke-width:0.25; stroke-dasharray:3,3;"/>
<text x="20.000000" y="17.000000" font-family="Arial" font-size="7">tf2(0.161758)(0)(-1)(0)(-0.161758)</text>
<line x1="549.700000" y1="95.000000" x2="552.700000" y2="96.000000"  transform="rotate(0.000000,552.700000,96.000000)" style="stroke: black; stroke-width:0.25;"/>
<line x1="549.700000" y1="97.000000" x2="552.700000" y2="96.000000"  transform="rotate(0.000000,552.700000,96.000000)" style="stroke: black; stroke-width:0.25;"/>
<line x1="10.000000" y1="96.000000" x2="20.000000" y2="96.000000"  style="stroke:black; stroke-linecap:round; stroke-width:0.25;"/>
<line x1="20.000000" y1="96.000000" x2="24.000000" y2="96.000000"  style="stroke:black; stroke-linecap:round; stroke-width:0.25;"/>
<line x1="24.000000" y1="96.000000" x2="28.000000" y2="96.000000"  style="stroke:black; stroke-linecap:round; stroke-width:0.25;"/>
<line x1="28.000000" y1="96.000000" x2="36.000000" y2="96.000000"  style="stroke:black; stroke-linecap:round; stroke-width:0.25;"/>
<line x1="36.000000" y1="96.000000" x2="36.000000" y2="140.000000"  style="stroke:black; stroke-linecap:round; stroke-width:0.25;"/>
<line x1="36.000000" y1="140.000000" x2="36.000000" y2="140.000000"  style="stroke:black; stroke-linecap:round; stroke-width:0.25;"/>
<line x1="36.000000" y1="140.000000" x2="44.000000" y2="140.000000"  style="stroke:black; stroke-linecap:round; stroke-width:0.25;"/>
<line x1="44.000000" y1="80.000000" x2="44.000000" y2="80.000000"  style="stroke:black; stroke-linecap:round; stroke-width:0.25;"/>
<line x1="44.000000" y1="80.000000" x2="44.000000" y2="132.000000"  style="stroke:black; stroke-linecap:round; stroke-width:0.25;"/>
<line x1="44.000000" y1="132.000000" x2="44.000000" y2="132.000000"  style="stroke:black; stroke-linecap:round; stroke-width:0.25;"/>
<line x1="44.000000" y1="132.000000" x2="141.350000" y2="132.000000"  style="stroke:black; stroke-linecap:round; stroke-width:0.25;"/>
<line x1="44.000000" y1="140.000000" x2="141.350000" y2="140.000000"  style="stroke:black; stroke-linecap:round; stroke-width:0.25;"/>
<line x1="48.000000" y1="80.000000" x2="44.000000" y2="80.000000"  style="stroke:black; stroke-linecap:round; stroke-width:0.25;"/>
<line x1="52.000000" y1="80.000000" x2="48.000000" y2="80.000000"  style="stroke:black; stroke-linecap:round; stroke-width:0.25;"/>
<line x1="74.000000" y1="60.000000" x2="52.000000" y2="80.000000"  style="stroke:black; stroke-linecap:round; stroke-width:0.25;"/>
<line x1="74.000000" y1="100.000000" x2="52.000000" y2="80.000000"  style="stroke:black; stroke-linecap:round; stroke-width:0.25;"/>
<line x1="78.000000" y1="60.000000" x2="74.000000" y2="60.000000"  style="stroke:black; stroke-linecap:round; stroke-width:0.25;"/>
<line x1="106.000000" y1="56.000000" x2="102.000000" y2="56.000000"  style="stroke:black; stroke-linecap:round; stroke-width:0.25;"/>
<line x1="106.000000" y1="64.000000" x2="102.000000" y2="64.000000"  style="stroke:black; stroke-linecap:round; stroke-width:0.25;"/>
<line x1="106.000000" y1="64.000000" x2="106.000000" y2="64.000000"  style="stroke:black; stroke-linecap:round; stroke-width:0.25;"/>
<line x1="106.000000" y1="76.000000" x2="106.000000" y2="64.000000"  style="stroke:black; stroke-linecap:round; stroke-width:0.25;"/>
<line x1="114.000000" y1="56.000000" x2="106.000000" y2="56.000000"  style="stroke:black; stroke-linecap:round; stroke-width:0.25;"/>
<line x1="114.000000" y1="76.000000" x2="106.000000" y2="76.000000"  style="stroke:black; stroke-linecap:round; stroke-width:0.25;"/>
<line x1="118.000000" y1="56.000000" x2="114.000000" y2="56.000000"  style="stroke:black; stroke-linecap:round; stroke-width:0.25;"/>
<line x1="121.350000" y1="100.000000" x2="74.000000" y2="100.000000"  style="stroke:black; stroke-linecap:round; stroke-width:0.25;"/>
<line x1="125.350000" y1="100.000000" x2="121.350000" y2="100.000000"  style="stroke:black; stroke-linecap:round; stroke-width:0.25;"/>
<line x1="137.350000" y1="76.000000" x2="114.000000" y2="76.000000"  style="stroke:black; stroke-linecap:round; stroke-width:0.25;"/>
<line x1="141.350000" y1="132.000000" x2="145.350000" y2="132.000000"  style="stroke:black; stroke-linecap:round; stroke-width:0.25;"/>
<line x1="141.350000" y1="140.000000" x2="145.350000" y2="140.000000"  style="stroke:black; stroke-linecap:round; stroke-width:0.25;"/>
<line x1="153.350000" y1="96.000000" x2="149.350000" y2="96.000000"  style="stroke:black; stroke-linecap:round; stroke-width:0.25;"/>
<line x1="153.350000" y1="104.000000" x2="149.350000" y2="104.000000"  style="stroke:black; stroke-linecap:round; stroke-width:0.25;"/>
<line x1="153.350000" y1="104.000000" x2="153.350000" y2="104.000000"  style="stroke:black; stroke-linecap:round; stroke-width:0.25;"/>
<line x1="153.350000" y1="116.000000" x2="153.350000" y2="104.000000"  style="stroke:black; stroke-linecap:round; stroke-width:0.25;"/>
<line x1="160.700000" y1="76.000000" x2="137.350000" y2="76.000000"  style="stroke:black; stroke-linecap:round; stroke-width:0.25;"/>
<line x1="161.350000" y1="96.000000" x2="153.350000" y2="96.000000"  style="stroke:black; stroke-linecap:round; stroke-width:0.25;"/>
<line x1="161.350000" y1="116.000000" x2="153.350000" y2="116.000000"  style="stroke:black; stroke-linecap:round; stroke-width:0.25;"/>
<line x1="165.350000" y1="96.000000" x2="161.350000" y2="96.000000"  style="stroke:black; stroke-linecap:round; stroke-width:0.25;"/>
<line x1="168.700000" y1="60.000000" x2="168.700000" y2="60.000000"  style="stroke:black; stroke-linecap:round; stroke-width:0.25;"/>
<line x1="168.700000" y1="60.000000" x2="168.700000" y2="76.000000"  style="stroke:black; stroke-linecap:round; stroke-width:0.25;"/>
<line x1="168.700000" y1="76.000000" x2="160.700000" y2="76.000000"  style="stroke:black; stroke-linecap:round; stroke-width:0.25;"/>
<line x1="169.350000" y1="136.000000" x2="173.350000" y2="136.000000"  style="stroke:black; stroke-linecap:round; stroke-width:0.25;"/>
<line x1="172.700000" y1="60.000000" x2="168.700000" y2="60.000000"  style="stroke:black; stroke-linecap:round; stroke-width:0.25;"/>
<line x1="173.350000" y1="136.000000" x2="270.700000" y2="136.000000"  style="stroke:black; stroke-linecap:round; stroke-width:0.25;"/>
<line x1="177.350000" y1="116.000000" x2="161.350000" y2="116.000000"  style="stroke:black; stroke-linecap:round; stroke-width:0.25;"/>
<line x1="193.350000" y1="116.000000" x2="177.350000" y2="116.000000"  style="stroke:black; stroke-linecap:round; stroke-width:0.25;"/>
<line x1="200.700000" y1="56.000000" x2="196.700000" y2="56.000000"  style="stroke:black; stroke-linecap:round; stroke-width:0.25;"/>
<line x1="200.700000" y1="64.000000" x2="196.700000" y2="64.000000"  style="stroke:black; stroke-linecap:round; stroke-width:0.25;"/>
<line x1="200.700000" y1="64.000000" x2="200.700000" y2="64.000000"  style="stroke:black; stroke-linecap:round; stroke-width:0.25;"/>
<line x1="200.700000" y1="76.000000" x2="200.700000" y2="64.000000"  style="stroke:black; stroke-linecap:round; stroke-width:0.25;"/>
<line x1="208.700000" y1="56.000000" x2="200.700000" y2="56.000000"  style="stroke:black; stroke-linecap:round; stroke-width:0.25;"/>
<line x1="208.700000" y1="76.000000" x2="200.700000" y2="76.000000"  style="stroke:black; stroke-linecap:round; stroke-width:0.25;"/>
<line x1="212.700000" y1="56.000000" x2="208.700000" y2="56.000000"  style="stroke:black; stroke-linecap:round; stroke-width:0.25;"/>
<line x1="224.700000" y1="76.000000" x2="208.700000" y2="76.000000"  style="stroke:black; stroke-linecap:round; stroke-width:0.25;"/>
<line x1="240.700000" y1="76.000000" x2="224.700000" y2="76.000000"  style="stroke:black; stroke-linecap:round; stroke-width:0.25;"/>
<line x1="240.700000" y1="116.000000" x2="193.350000" y2="116.000000"  style="stroke:black; stroke-linecap:round; stroke-width:0.25;"/>
<line x1="262.700000" y1="80.000000" x2="240.700000" y2="76.000000"  style="stroke:black; stroke-linecap:round; stroke-width:0.25;"/>
<line x1="262.700000" y1="80.000000" x2="240.700000" y2="116.000000"  style="stroke:black; stroke-linecap:round; stroke-width:0.25;"/>
<line x1="266.700000" y1="80.000000" x2="262.700000" y2="80.000000"  style="stroke:black; stroke-linecap:round; stroke-width:0.25;"/>
<line x1="270.700000" y1="80.000000" x2="266.700000" y2="80.000000"  style="stroke:black; stroke-linecap:round; stroke-width:0.25;"/>
<line x1="270.700000" y1="80.000000" x2="270.700000" y2="80.000000"  style="stroke:black; stroke-linecap:round; stroke-width:0.25;"/>
<line x1="270.700000" y1="132.000000" x2="270.700000" y2="80.000000"  style="stroke:black; stroke-linecap:round; stroke-width:0.25;"/>
<line x1="270.700000" y1="136.000000" x2="272.700000" y2="136.000000"  style="stroke:black; stroke-linecap:round; stroke-width:0.25;"/>
<line x1="272.700000" y1="136.000000" x2="278.700000" y2="136.000000"  style="stroke:black; stroke-linecap:round; stroke-width:0.25;"/>
<line x1="278.700000" y1="96.000000" x2="286.700000" y2="96.000000"  style="stroke:black; stroke-linecap:round; stroke-width:0.25;"/>
<line x1="278.700000" y1="136.000000" x2="278.700000" y2="96.000000"  style="stroke:black; stroke-linecap:round; stroke-width:0.25;"/>
<line x1="278.700000" y1="136.000000" x2="278.700000" y2="136.000000"  style="stroke:black; stroke-linecap:round; stroke-width:0.25;"/>
<line x1="286.700000" y1="96.000000" x2="290.700000" y2="96.000000"  style="stroke:black; stroke-linecap:round; stroke-width:0.25;"/>
<line x1="290.700000" y1="96.000000" x2="294.700000" y2="96.000000"  style="stroke:black; stroke-linecap:round; stroke-width:0.25;"/>
<line x1="294.700000" y1="96.000000" x2="334.700000" y2="64.000000"  style="stroke:black; stroke-linecap:round; stroke-width:0.25;"/>
<line x1="294.700000" y1="96.000000" x2="334.700000" y2="104.000000"  style="stroke:black; stroke-linecap:round; stroke-width:0.25;"/>
<line x1="294.700000" y1="96.000000" x2="334.700000" y2="24.000000"  style="stroke:black; stroke-linecap:round; stroke-width:0.25;"/>
<line x1="334.700000" y1="64.000000" x2="350.700000" y2="64.000000"  style="stroke:black; stroke-linecap:round; stroke-width:0.25;"/>
<line x1="334.700000" y1="104.000000" x2="344.700000" y2="104.000000"  style="stroke:black; stroke-linecap:round; stroke-width:0.25;"/>
<line x1="334.700000" y1="24.000000" x2="367.350000" y2="24.000000"  style="stroke:black; stroke-linecap:round; stroke-width:0.25;"/>
<line x1="344.700000" y1="104.000000" x2="380.700000" y2="104.000000"  style="stroke:black; stroke-linecap:round; stroke-width:0.25;"/>
<line x1="350.700000" y1="64.000000" x2="366.700000" y2="64.000000"  style="stroke:black; stroke-linecap:round; stroke-width:0.25;"/>
<line x1="362.700000" y1="84.000000" x2="366.700000" y2="84.000000"  style="stroke:black; stroke-linecap:round; stroke-width:0.25;"/>
<line x1="366.700000" y1="64.000000" x2="374.700000" y2="64.000000"  style="stroke:black; stroke-linecap:round; stroke-width:0.25;"/>
<line x1="366.700000" y1="84.000000" x2="374.700000" y2="84.000000"  style="stroke:black; stroke-linecap:round; stroke-width:0.25;"/>
<line x1="367.350000" y1="24.000000" x2="390.700000" y2="24.000000"  style="stroke:black; stroke-linecap:round; stroke-width:0.25;"/>
<line x1="372.700000" y1="124.000000" x2="376.700000" y2="124.000000"  style="stroke:black; stroke-linecap:round; stroke-width:0.25;"/>
<line x1="372.700000" y1="156.000000" x2="376.700000" y2="156.000000"  style="stroke:black; stroke-linecap:round; stroke-width:0.25;"/>
<line x1="374.700000" y1="64.000000" x2="374.700000" y2="76.000000"  style="stroke:black; stroke-linecap:round; stroke-width:0.25;"/>
<line x1="374.700000" y1="76.000000" x2="374.700000" y2="76.000000"  style="stroke:black; stroke-linecap:round; stroke-width:0.25;"/>
<line x1="374.700000" y1="76.000000" x2="378.700000" y2="76.000000"  style="stroke:black; stroke-linecap:round; stroke-width:0.25;"/>
<line x1="374.700000" y1="84.000000" x2="378.700000" y2="84.000000"  style="stroke:black; stroke-linecap:round; stroke-width:0.25;"/>
<line x1="376.700000" y1="124.000000" x2="384.700000" y2="124.000000"  style="stroke:black; stroke-linecap:round; stroke-width:0.25;"/>
<line x1="376.700000" y1="144.000000" x2="384.700000" y2="144.000000"  style="stroke:black; stroke-linecap:round; stroke-width:0.25;"/>
<line x1="376.700000" y1="156.000000" x2="376.700000" y2="144.000000"  style="stroke:black; stroke-linecap:round; stroke-width:0.25;"/>
<line x1="376.700000" y1="156.000000" x2="376.700000" y2="156.000000"  style="stroke:black; stroke-linecap:round; stroke-width:0.25;"/>
<line x1="380.700000" y1="104.000000" x2="416.700000" y2="104.000000"  style="stroke:black; stroke-linecap:round; stroke-width:0.25;"/>
<line x1="384.700000" y1="124.000000" x2="384.700000" y2="136.000000"  style="stroke:black; stroke-linecap:round; stroke-width:0.25;"/>
<line x1="384.700000" y1="136.000000" x2="384.700000" y2="136.000000"  style="stroke:black; stroke-linecap:round; stroke-width:0.25;"/>
<line x1="384.700000" y1="136.000000" x2="388.700000" y2="136.000000"  style="stroke:black; stroke-linecap:round; stroke-width:0.25;"/>
<line x1="384.700000" y1="144.000000" x2="388.700000" y2="144.000000"  style="stroke:black; stroke-linecap:round; stroke-width:0.25;"/>
<line x1="390.700000" y1="24.000000" x2="414.050000" y2="24.000000"  style="stroke:black; stroke-linecap:round; stroke-width:0.25;"/>
<line x1="402.700000" y1="80.000000" x2="406.700000" y2="80.000000"  style="stroke:black; stroke-linecap:round; stroke-width:0.25;"/>
<line x1="406.700000" y1="64.000000" x2="414.700000" y2="64.000000"  style="stroke:black; stroke-linecap:round; stroke-width:0.25;"/>
<line x1="406.700000" y1="80.000000" x2="406.700000" y2="64.000000"  style="stroke:black; stroke-linecap:round; stroke-width:0.25;"/>
<line x1="406.700000" y1="80.000000" x2="406.700000" y2="80.000000"  style="stroke:black; stroke-linecap:round; stroke-width:0.25;"/>
<line x1="410.050000" y1="44.000000" x2="414.050000" y2="44.000000"  style="stroke:black; stroke-linecap:round; stroke-width:0.25;"/>
<line x1="412.700000" y1="140.000000" x2="416.700000" y2="140.000000"  style="stroke:black; stroke-linecap:round; stroke-width:0.25;"/>
<line x1="414.050000" y1="44.000000" x2="422.050000" y2="44.000000"  style="stroke:black; stroke-linecap:round; stroke-width:0.25;"/>
<line x1="414.050000" y1="24.000000" x2="422.050000" y2="24.000000"  style="stroke:black; stroke-linecap:round; stroke-width:0.25;"/>
<line x1="414.700000" y1="64.000000" x2="430.700000" y2="64.000000"  style="stroke:black; stroke-linecap:round; stroke-width:0.25;"/>
<line x1="416.700000" y1="104.000000" x2="424.700000" y2="104.000000"  style="stroke:black; stroke-linecap:round; stroke-width:0.25;"/>
<line x1="416.700000" y1="140.000000" x2="424.700000" y2="140.000000"  style="stroke:black; stroke-linecap:round; stroke-width:0.25;"/>
<line x1="422.050000" y1="36.000000" x2="426.050000" y2="36.000000"  style="stroke:black; stroke-linecap:round; stroke-width:0.25;"/>
<line x1="422.050000" y1="44.000000" x2="426.050000" y2="44.000000"  style="stroke:black; stroke-linecap:round; stroke-width:0.25;"/>
<line x1="422.050000" y1="24.000000" x2="422.050000" y2="36.000000"  style="stroke:black; stroke-linecap:round; stroke-width:0.25;"/>
<line x1="422.050000" y1="36.000000" x2="422.050000" y2="36.000000"  style="stroke:black; stroke-linecap:round; stroke-width:0.25;"/>
<line x1="424.700000" y1="104.000000" x2="424.700000" y2="132.000000"  style="stroke:black; stroke-linecap:round; stroke-width:0.25;"/>
<line x1="424.700000" y1="132.000000" x2="424.700000" y2="132.000000"  style="stroke:black; stroke-linecap:round; stroke-width:0.25;"/>
<line x1="424.700000" y1="132.000000" x2="428.700000" y2="132.000000"  style="stroke:black; stroke-linecap:round; stroke-width:0.25;"/>
<line x1="424.700000" y1="140.000000" x2="428.700000" y2="140.000000"  style="stroke:black; stroke-linecap:round; stroke-width:0.25;"/>
<line x1="430.700000" y1="64.000000" x2="446.700000" y2="64.000000"  style="stroke:black; stroke-linecap:round; stroke-width:0.25;"/>
<line x1="442.700000" y1="84.000000" x2="446.700000" y2="84.000000"  style="stroke:black; stroke-linecap:round; stroke-width:0.25;"/>
<line x1="446.700000" y1="64.000000" x2="454.700000" y2="64.000000"  style="stroke:black; stroke-linecap:round; stroke-width:0.25;"/>
<line x1="446.700000" y1="84.000000" x2="454.700000" y2="84.000000"  style="stroke:black; stroke-linecap:round; stroke-width:0.25;"/>
<line x1="450.050000" y1="40.000000" x2="454.050000" y2="40.000000"  style="stroke:black; stroke-linecap:round; stroke-width:0.25;"/>
<line x1="452.700000" y1="136.000000" x2="456.700000" y2="136.000000"  style="stroke:black; stroke-linecap:round; stroke-width:0.25;"/>
<line x1="454.050000" y1="40.000000" x2="486.700000" y2="40.000000"  style="stroke:black; stroke-linecap:round; stroke-width:0.25;"/>
<line x1="454.700000" y1="64.000000" x2="454.700000" y2="76.000000"  style="stroke:black; stroke-linecap:round; stroke-width:0.25;"/>
<line x1="454.700000" y1="76.000000" x2="454.700000" y2="76.000000"  style="stroke:black; stroke-linecap:round; stroke-width:0.25;"/>
<line x1="454.700000" y1="76.000000" x2="458.700000" y2="76.000000"  style="stroke:black; stroke-linecap:round; stroke-width:0.25;"/>
<line x1="454.700000" y1="84.000000" x2="458.700000" y2="84.000000"  style="stroke:black; stroke-linecap:round; stroke-width:0.25;"/>
<line x1="456.700000" y1="136.000000" x2="456.700000" y2="136.000000"  style="stroke:black; stroke-linecap:round; stroke-width:0.25;"/>
<line x1="456.700000" y1="136.000000" x2="460.700000" y2="136.000000"  style="stroke:black; stroke-linecap:round; stroke-width:0.25;"/>
<line x1="472.700000" y1="136.000000" x2="476.700000" y2="136.000000"  style="stroke:black; stroke-linecap:round; stroke-width:0.25;"/>
<line x1="476.700000" y1="136.000000" x2="486.700000" y2="136.000000"  style="stroke:black; stroke-linecap:round; stroke-width:0.25;"/>
<line x1="482.700000" y1="80.000000" x2="486.700000" y2="80.000000"  style="stroke:black; stroke-linecap:round; stroke-width:0.25;"/>
<line x1="486.700000" y1="80.000000" x2="526.700000" y2="96.000000"  style="stroke:black; stroke-linecap:round; stroke-width:0.25;"/>
<line x1="486.700000" y1="136.000000" x2="526.700000" y2="96.000000"  style="stroke:black; stroke-linecap:round; stroke-width:0.25;"/>
<line x1="486.700000" y1="40.000000" x2="526.700000" y2="96.000000"  style="stroke:black; stroke-linecap:round; stroke-width:0.25;"/>
<line x1="526.700000" y1="96.000000" x2="530.700000" y2="96.000000"  style="stroke:black; stroke-linecap:round; stroke-width:0.25;"/>
<line x1="530.700000" y1="96.000000" x2="534.700000" y2="96.000000"  style="stroke:black; stroke-linecap:round; stroke-width:0.25;"/>
<line x1="534.700000" y1="96.000000" x2="534.700000" y2="96.000000"  style="stroke:black; stroke-linecap:round; stroke-width:0.25;"/>
<line x1="534.700000" y1="96.000000" x2="538.700000" y2="96.000000"  style="stroke:black; stroke-linecap:round; stroke-width:0.25;"/>
<line x1="538.700000" y1="96.000000" x2="542.700000" y2="96.000000"  style="stroke:black; stroke-linecap:round; stroke-width:0.25;"/>
<line x1="542.700000" y1="96.000000" x2="552.700000" y2="96.000000"  style="stroke:black; stroke-linecap:round; stroke-width:0.25;"/>
</svg>
